<?xml version="1.0" encoding="utf-8"?>
<!-- Generator: Adobe Illustrator 25.2.3, SVG Export Plug-In . SVG Version: 6.00 Build 0)  -->
<svg version="1.1" id="Layer_1" xmlns="http://www.w3.org/2000/svg" xmlns:xlink="http://www.w3.org/1999/xlink" x="0px" y="0px"
	 viewBox="0 0 68 44" style="enable-background:new 0 0 68 44;" xml:space="preserve">
<style type="text/css">
	.st0{fill:#3A7BBE;}
</style>
<g>
	<g>
		<g>
			<path class="st0" d="M44.1,23.5l-0.2,0l-0.1,0l-0.5,0.3l-0.4,0.1l-0.3,0.4l-0.4,0.3L42,24.8l-0.1,0l-0.3,0.1L41,25.1l-0.2,0
				l-0.2,0.1l-0.1,0.2l-0.3,0.2l-0.4,0.1l-0.5,0.3l-0.6,0.2l-0.5,0.3l-0.9,0.3l-0.4,0.3L36,27.3l-0.5,0.1l-0.2-0.1l-0.1,0l-0.1,0
				l-0.3,0.2l-0.6-0.1l0-0.3l0.3-0.9l0.1-0.7l0.3-0.4l0.2-0.3l0-0.4L35,24l0-0.1l0.1-0.2l0.3-0.3l0.1-0.9l0.2-0.1l0.2-0.2L35.9,22
				l0-0.3l0.3-0.3l0-0.1l0-0.3l0.1-0.3l0.3-0.7l0.3-0.7l0-0.6l0.2-0.3l-0.1-0.3l0-0.1l0.1-0.1l0.2-0.2l0.1-0.3l0.1-0.2l0.1-0.3
				l0.2-0.5l0.1-0.3l0.1-0.7l0-0.1l-0.1-0.1l-0.4-0.2l-0.4-0.2l-0.1,0l0,0l-0.1,0L37,15l-0.2,0.3l-0.1,0l0-0.1l0.1-0.4l-0.5-0.3
				l-0.4-0.2l-0.3-0.1l-0.1,0.3l-0.3,1.1l-0.1,0.6L35,16.7l-0.1,0.5l-0.1,0.3L34.4,19l-0.5,1l-0.1,0.3l-0.1,0.2L33.7,21l-0.1,0.2
				l-0.1,0.6L33.4,22l-0.1,0.5l-0.2,0.4l-0.2,0.9l0,0l-0.4,0.2l-0.9,0.1l0,0.1l-0.1,0l0.1,0.3l0,0.1l-0.1,0.1l-1.2,0.5l-0.3,0.1
				l0,0.4l-0.3,0.1l-1.1,0.3l-0.3,0.6l0,0.1l-0.8,0.5l-0.3,0.2l0.1,0.2l-0.3,0.1l-0.2,0l-0.3,0.1L26.2,28l-0.3,0.3l-0.2,0.2
				l-0.3,0.1l-0.2,0.2L25,28.8l-0.1,0.4l-0.1,0.1l-0.1,0l0,0l-0.2-0.2l-0.8,0.6l-0.4,0.2l-0.2,0.1L23,30l0.2-0.2l0.1-0.2l0.2-0.2
				l0.4-0.3l0.3-0.3l0.6-0.4l0.1-0.2l0.5-0.3l0.1-0.1l0.2-0.4l0.3-0.1l0.3-0.5l0.2-0.1l0.1,0.1l0,0l0.1-0.1l0.1-0.3l0.1-0.3l0.2,0
				l0.1-0.1l0.1-0.3l0.4-0.2l0.1-0.2l0.2-0.3l0.1-0.3L27.9,24l-0.3-0.8l-0.3-0.4l0-0.2l-0.1-0.4L27,21.8l-0.1,0l-0.2-0.1l-0.2-0.1
				l-0.3,0.1l0-0.1l-0.1,0.1l0-0.1l-0.2,0l-0.1,0.1l-0.1,0l-0.1-0.1l-0.1,0l0-0.1l-0.2,0.1l0-0.1L25,21.5l-0.1-0.1l0-0.2l-0.3,0.2
				l-0.1,0l-0.1-0.2l-0.2,0.2l-0.1,0l0-0.3l-0.4-0.1l-0.2,0.1l-0.2,0l0-0.2l-0.2,0L22.8,21l-0.2-0.1l-0.3-0.1l-0.2,0.1l-0.4-0.1
				l-0.3,0.1l-0.1-0.2l0.1-0.2l-0.3,0L21,20.3l-0.2,0l-0.1-0.1l0.2-0.2l0.7-0.5l0.6-0.4l0.6-0.3l0.4-0.2l0.2-0.2l0.6-0.3l0.4-0.3
				l0.8-0.1l0.3-0.4l0.7-0.2l0.2-0.4l0.5,0.1l0.2-0.3l0.3,0l0.2-0.2l0.2-0.1l0.1-0.2l0-0.1l-0.1-0.3l-0.2-0.8l-0.1-0.3l-0.3,0
				l-0.6,0.2l0,0l-0.1,0l-0.1-0.1l0-0.1l0-0.1l0-0.1l0.1-0.1l0.8-0.3l0.2-0.1l-0.1-0.2l-0.1-0.1l-0.2-0.1l-0.3,0l-1.7,0.6l-0.3,0.1
				L23.2,15l-0.3,0.2l-0.2,0.1l0,0.2l0,0.1l-0.1,0.1l-0.4,0.1l-0.3,0.1l-0.1-0.1l-0.1,0L21,16.3L19.9,17l-0.4,0.2l-0.6,0.6L18.6,18
				l0,0.4l0.2,0.7l0.1,0.6l0.3,0.2l0,0.3l0,0.1l0,0.1l0.5,1.3l0,0l0,0l0.5,0.2l0.6,0.2l0.5-0.1l0.5,0.3l1.1,0.2l0.2,0l0.2,0.1l0.4,0
				l0.2,0.2l0.2,0l0.3,0l0.1,0.1l1,0l0,0.1l0.2,0.1l0,0.1l-0.1,0.3l-0.6,0.6l-0.7,0.7l-1.1,1l-0.3,0.3l-0.7,0.5l-2.4,1.9l-0.2,0.1
				l-0.2,0.1l-0.7,0.4L18,29.3l-0.6,0.3l-0.3,0.1L17,29.9l0-0.1l-0.1-0.3l0-0.1l0.3-0.4l0.2-0.2l0.3,0.3l0.2,0l0.2,0l0.1,0l0.1-0.1
				l0-0.1l0.1-0.4l0.2-0.2l0-0.1l0.3-0.1l0.1-0.3l0.5,0.4l0.1,0l0.1,0l0.3-0.6l0.5-0.6l0.2-0.2l-0.1-0.1l-0.1,0l-0.2,0.2l-0.4,0.2
				L18.8,27l0,0.1l-0.1,0l0.1,0.3l0,0.1l-0.1,0.1l-1.2,0.5l-0.3,0.1l0,0.4l-0.3,0.1L15.8,29l-0.3,0.6l0,0.1l-0.8,0.5l-0.3,0.2
				l0.1,0.2l-0.3,0.1l-0.2,0l-0.3,0.1l-0.3,0.1l-0.3,0.3L13,31.3l-0.3,0.1l-0.2,0.2l-0.3,0.1L12.1,32L12,32.1l-0.1,0l0,0l-0.2-0.2
				L11,32.5l-0.4,0.2l-0.2,0.1l-0.1-0.1l0.2-0.2l0.1-0.2l0.2-0.2l0.4-0.3l0.3-0.3L12,31l0.1-0.2l0.5-0.3l0.1-0.1l0.2-0.4l0.3-0.1
				l0.3-0.5l0.2-0.1l0.1,0.1l0,0l0.1-0.1l0.1-0.3l0.1-0.3l0.2,0l0.1-0.1l0.1-0.3l0.4-0.2l0.1-0.2l0.2-0.3l0.1-0.3l-0.1-0.5L14.9,26
				l-0.3-0.4l0-0.2L14.4,25l-0.1-0.3l-0.1,0L14,24.5l-0.2-0.1l-0.3,0.1l0-0.1l-0.1,0.1l0-0.1l-0.2,0L13,24.5l-0.1,0l-0.1-0.1l-0.1,0
				l0-0.1l-0.2,0.1l0-0.1l-0.2,0.1l-0.1-0.1l0-0.2l-0.3,0.2l-0.1,0L11.5,24l-0.2,0.2l-0.1,0l0-0.3l-0.4-0.1L10.7,24l-0.2,0l0-0.2
				l-0.2,0l-0.2,0.1l-0.2-0.1l-0.3-0.1l-0.2,0.1l-0.4-0.1l-0.3,0.1l-0.1-0.2l0.1-0.2l-0.3,0l-0.3-0.2l-0.2,0l-0.1-0.1l0.2-0.2
				l0.7-0.5l0.6-0.4l0.6-0.3l0.4-0.2l0.2-0.2l0.6-0.3l0.4-0.3l0.8-0.1l0.3-0.4l0.7-0.2l0.2-0.4l0.5,0.1l0.2-0.3l0.3,0l0.2-0.2
				l0.2-0.1l0.1-0.2l0-0.1l-0.1-0.3l-0.2-0.8l-0.1-0.3l-0.3,0l-0.6,0.2l0,0l-0.1,0l-0.1-0.1l0-0.1l0-0.1l0-0.1l0.1-0.1l0.8-0.3
				l0.2-0.1l-0.1-0.2l-0.1-0.1l-0.2-0.1l-0.3,0L12.4,17l-0.3,0.1l-1.7,0.7L10.2,18l-0.2,0.1l0,0.2l0,0.1l-0.1,0.1l-0.4,0.1l-0.3,0.1
				L9,18.7l-0.1,0l-0.6,0.4l-1.1,0.8l-0.4,0.2l-0.6,0.6l-0.2,0.1l0,0.4l0.2,0.7l0.1,0.6l0.3,0.2l0,0.3l0,0.1l0,0.1l0.5,1.3l0,0l0,0
				l0.5,0.2L8,24.7l0.5-0.1l0.5,0.3l1.1,0.2l0.2,0l0.2,0.1l0.4,0l0.2,0.2l0.2,0l0.3,0l0.1,0.1l1,0l0,0.1l0.2,0.1l0,0.1l-0.1,0.3
				l-0.6,0.6l-0.7,0.7l-1.1,1l-0.3,0.3L9.6,29L7.2,31L7,31.1l-0.2,0.1l-0.7,0.4l-0.9,0.5l-0.6,0.3l-0.3,0.1l-0.3,0.2l-0.2,0.1l0,0.3
				l0.2,0.3l0,0l0.1,0l0.1,0l0.6-0.3l0.5-0.2l0.3-0.2l0.2,0l0.3-0.1l0.2,0l-0.1,0.2l-0.6,0.3l-0.1,0.1l-0.4,0.1l-0.3,0.2L4.7,34
				l-0.3,0.1l-0.1,0.1l-0.1,0.2l0,0.5l0.1,0.4L4.8,36L5,36.1l0.1,0l0.1,0l0.5-0.3l0.2,0l0.3-0.2l0.3,0L7,35.4l0.4-0.1l0.3-0.2
				L8,34.9l0.3-0.2l0.4-0.1l0.4-0.3l0.3-0.1L9.6,34l0.2-0.2l0.2-0.1l0.4,0l0.2-0.3l0.3-0.3l0.1,0l0.4-0.1l0.4-0.3l0.5-0.1l0.4-0.6
				l0.6,0l0.3-0.5l0,0l0.1,0l0.7,0.1l0.1,0l0.1-0.1l0.1-0.1l0-0.2l0-0.2l0.3-0.2l0.4,0l0.2,0l0.1-0.2l0.1-0.2l0-0.4l0.4-0.3l0.3,0.1
				l0.3,0.1l0.1,0l-0.1,0l-0.2,0.1l0,0.3l0.2,0.3l0,0l0.1,0l0.1,0l0.6-0.3l0.5-0.2l0.3-0.2l0.2,0l0.3-0.1l0.2,0L19,30.1l-0.6,0.3
				l-0.1,0.1l-0.4,0.1l-0.3,0.2l-0.1,0.3l-0.3,0.1l-0.1,0.1L17,31.6l0,0.5l0.1,0.4l0.4,0.7l0.2,0.1l0.1,0l0.1,0l0.5-0.3l0.2,0
				l0.3-0.2l0.3,0l0.3-0.2l0.4-0.1l0.3-0.2l0.4-0.1l0.3-0.2l0.4-0.1l0.4-0.3l0.3-0.1l0.2-0.2l0.2-0.2l0.2-0.1l0.4,0l0.2-0.3l0.3-0.3
				l0.1,0l0.4-0.1l0.4-0.3l0.5-0.1l0.4-0.6l0.6,0l0.3-0.5l0,0l0.1,0l0.7,0.1l0.1,0l0.1-0.1l0.1-0.1l0-0.2l0-0.2l0.3-0.2l0.4,0l0.2,0
				l0.1-0.2l0.1-0.2l0-0.4L29,27l0.3,0.1l0.3,0.1l0.2,0l0-0.2l-0.1-0.3l0-0.1l0.3-0.4l0.2-0.2l0.3,0.3l0.2,0l0.2,0l0.1,0l0.1-0.1
				l0-0.1l0.1-0.4l0.2-0.2l0-0.1l0.3-0.1l0.1-0.3l0.5,0.4l0.1,0l0.1,0l0.3-0.6l0.1-0.1l-1,2.9l-0.3,0.8l0,0.2l0.2,0.1l0.5,0.2
				l0.4,0.1l0.3,0.2l0.5,0.2l0.4,0.2l0.2-0.2l0.2-0.2l0.2-0.1l0.1,0l0.3,0l0.4-0.2l0.3,0l0.3-0.3l0.1-0.1l0.7,0.1l0.3-0.1l0-0.3
				l0.1-0.2l0.1-0.1l0.1,0l0.1,0l0.8,0.3l0.3,0l0.3-0.6l0.1,0l0.5-0.1l0.3-0.1l0.2-0.1l0.1-0.3l0-0.1l0.1,0l0.5,0l0.3,0l0-0.1
				l-0.1-0.4l0.1-0.1l0.5-0.2l0.4,0l0-0.4l0.1-0.2l0.2-0.1l0.4-0.1l0.4-0.4l0,0l0.1,0l0.1,0l0.2,0.1l0.1-0.1l0.4-0.4l0.6-0.2
				l0.1-0.1l0.2-0.2l-0.2-0.3L44.1,23.5z M36.5,16.8l0.2-0.2l0.1,0.2l0,0.2l-0.1,0l-0.2-0.2L36.5,16.8z M36,18.7l0.1-0.7l0.4-0.5
				l0,0l0.3,0.2l-0.1,0.3l0,0.3l-0.3,0.6l-0.1,0.3l-0.1,0l0-0.1L36.1,19L36,18.7z M27.1,15.8l0-0.1l0-0.1l0.1-0.1l0.1,0l0.1,0.1
				l0,0.1l0,0.1l-0.1,0.2l-0.1,0L27.1,15.8L27.1,15.8L27.1,15.8z M21,17.1L21,17l0.2-0.2l1.2-0.6l0.1-0.1l0.2-0.1l0.1,0.2l-0.2,0.2
				l-0.4,0.2l0,0l-0.1,0.3l0,0.1L21.9,17l-0.3,0.1l-0.3,0.2l0,0l-0.2,0l-0.1,0L21,17.1z M20,18.1l-0.1,0.1l-0.1-0.1l0-0.1l0.3-0.3
				l0.4-0.2l-0.1,0.2l-0.1,0.1l0,0.1L20,18.1z M14.3,18.6l0-0.1l0-0.1l0.1-0.1l0.1,0l0.1,0.1l0,0.1l0,0.1l-0.1,0.2l-0.1,0L14.3,18.6
				L14.3,18.6L14.3,18.6z M8.2,19.9l0.1-0.1l0.2-0.2L9.7,19l0.1-0.1l0.2-0.1l0.1,0.2L10,19.2l-0.4,0.2l0,0l-0.1,0.3l0,0.1l-0.2,0.1
				L8.9,20l-0.3,0.2l0,0l-0.2,0l-0.1,0L8.2,19.9z M7.2,20.9l-0.1,0.1L7,20.9l0-0.1l0.3-0.3l0.4-0.2l-0.1,0.2l-0.1,0.1l0,0.1
				L7.2,20.9z M5.3,35.8L5.3,35.8l-0.2,0.1l0,0l-0.1,0l-0.1-0.1l0-0.1l0-0.1l0-0.1L5,35.4l0.4,0.2L5.3,35.8z M7.4,32.1l-0.3,0.4
				l-0.2,0.2l-0.3-0.1l-0.1-0.1l0-0.1l0-0.1l0-0.1l0.2-0.2L7,31.9l0.5-0.2L7.4,32.1z M8.1,31.6L8.1,31.6l-0.2,0.1l-0.2-0.1l0-0.1
				L8,31.3l0.3-0.1l0.1,0.1L8.1,31.6z M8.7,31.1L8.7,31.1l-0.1,0.1l0,0l-0.1-0.1l0-0.1l0-0.1l0,0l0.1,0l0.1,0l0,0L8.7,31.1L8.7,31.1
				z M18.1,33L18.1,33l-0.2,0.1l0,0l-0.1,0l-0.1-0.1l0-0.1l0-0.1l0-0.1l0.1-0.1l0.4,0.2L18.1,33z M20.1,29.3l-0.3,0.4l-0.2,0.2
				l-0.3-0.1l-0.1-0.1l0-0.1l0-0.1l0-0.1l0.2-0.2l0.3-0.1l0.5-0.2L20.1,29.3z M20.8,28.8L20.8,28.8l-0.2,0.1l-0.2-0.1l0-0.1l0.3-0.2
				l0.3-0.1l0.1,0.1L20.8,28.8z M21.4,28.3L21.4,28.3l-0.1,0.1l0,0l-0.1-0.1l0-0.1l0-0.1l0,0l0.1,0l0.1,0l0,0L21.4,28.3L21.4,28.3z
				 M32.9,26.7L32.8,27l-0.3,0.4l-0.2,0l0-0.3l0.1-0.5l0.1-0.2l0.1-0.1l0.1,0l0.1,0l0,0.1L32.9,26.7z M33.4,24.9l-0.2,1l0,0.1L33,26
				l-0.1,0l-0.1,0l-0.1,0l0-0.1l0-0.2l0.2-0.5l0-0.4l0.1-0.4l0.3,0l0.1,0.2L33.4,24.9z"/>
			<polygon class="st0" points="45.4,22.2 45.3,22.2 44.8,22.5 44.4,22.8 44.3,22.9 44.3,23 44.5,23.3 44.7,23.5 44.9,23.5 
				45.3,22.9 45.5,22.4 45.5,22.3 45.5,22.2 			"/>
			<path class="st0" d="M43.2,12.8l-0.7-0.8l-0.9-0.7l-0.8-0.4l-0.6-0.2l-0.6-0.1l-0.5-0.1l-0.7,0l-0.6,0L36.1,11l-0.8,0.3l-0.4,0.2
				l-0.8,0.4l-0.5,0.3l-0.3,0.1l-0.2,0.2L32.1,13l-2,1.5L30,14.8l0.2,0.1l0.3-0.2l0.1,0.1L30.5,15l0,0.1l0,0.2l0.1,0.3l0.2,0.2
				l0.3-0.1l0.1,0.2l0.2,0.2l-0.1,0.2l0,0.2l0,0.1l0.1,0.2l0.1,0.1l0.2,0l0.1-0.1l0-0.1l0-0.1l0-0.4l0,0l0-0.1l0.1,0l0.2,0.1
				l0.3,0.1l0.2-0.2l0.8-0.6l0.1-0.3l0.3-0.4l0.3-0.3l0.3,0.3l0.2-0.1l0.5-0.4l0.5-0.3l0.2-0.3l0.3,0l0.5-0.4l0.5,0l0.5-0.4l0.2-0.1
				l0.1,0l0.5,0l0.3-0.1l0.3-0.1l0.4-0.1l0.7-0.1l0.4-0.1l0.3-0.1l0.4,0.1l0.3,0.1l0.4,0.2L42,13l0.1,0l0.2,0.2l0.3,0.4l0.2,0.2
				l0,0.3l0.2,0.3l0.1,0.3l0,0.3l0,0.4l0,0.3L43,16l0,0.4l-0.1,0.2l-0.2,0.2l0,0.2l-0.2,0.1l-0.2,0.2l0,0.1l-0.2,0.2l-0.6,0.6
				L41,18.6L40.5,19L40,19.2l-0.4,0.1l-0.2,0.2l-0.2,0.1l-0.4,0.1l-0.3,0.1l0.2,0.2l0,0.1l0,0.2l-0.2,0.4l-0.2,0.2L38.1,21L38,20.8
				l0-0.3l0.3-0.1l0-0.4l-0.9,0.3l0.2,0.9l0.1,0.4l0.1,0.2l0.2,0.9l0,0.1l0.1,0.1l0.1,0.1l0.3,0l0-0.1l0.3,0l0.2-0.1l0.4-0.1
				l0.1-0.1l0.2-0.1l0.2-0.2l-0.1-0.2l0-0.1l-0.1-0.1l0.2,0.1l0.3-0.3l0.2,0.2l0.5-0.1l0.2-0.3l0.2,0.1l0.1,0l0.1-0.1l0-0.1l0.3-0.1
				l-0.1-0.4l0.3,0l0.1-0.1l0.5-0.6l0.5-0.7l0.3-0.3l0.1-0.4l0.2-0.6l0.2-0.5l0-0.5l0-0.3l0.2-0.1l0-0.2l-0.1-0.1l0-0.3L44,14.7
				l-0.3-1L43.2,12.8z M31.7,14.1l-0.2,0.2l-0.2,0.2l-0.2,0.1l-0.1-0.1L31,14.4l0-0.1l0,0l0.7-0.3L31.7,14.1z"/>
			<path class="st0" d="M63.7,4.1c-0.3,0-0.5-0.2-0.7-0.1c-0.2,0.1-0.5,0.3-0.8,0.2c-0.3,0-0.3-0.8-0.3-0.8s-0.2,0.2-0.6,0.3
				c-0.4,0.1-1.6-0.4-1.6-0.4s0,0.2,0.2,0.7c0.1,0.5,0.1,1-0.1,1.1c-0.2,0-0.6,0.2-1,0.3c-0.4,0.2-0.6,0.1-0.6,0.1l-0.1,0l-0.4,0.2
				L56.5,6l-0.9,0.4l-2.4,0.8l-1.4,0.5l-0.3,0.2L51.3,8L51,8.1l-0.1,0.2l-0.3,0.1l-2.8,1.2l-0.9,0.4L46.4,10l-0.3,0.1l-1,0.4
				L44.7,11l-0.1,0.2l0,0.1l0.1,0.1l0.1,0.1l0.1,0l0,0l0.4-0.2l0,0l0.2,0l0.1,0.1l0,0l0.1,0.2l-0.2,0.2l-0.2,0.1L45.2,12l-0.1,0.2
				l0,0.1l0.1,0.3l0.1,0.3l0.1,0.1l0.1,0l0.2-0.2l0.5-0.1l0.4-0.1l0.1-0.1l0.2-0.4l0-0.1l0,0l0.4,0.1l0.2,0.1l0.1-0.1l0-0.2l0-0.1
				l0.3-0.3l0.1,0l0.2,0.1l0.3,0.2l0.1-0.1l0.2-0.1l0.3-0.1l0.4-0.1l0.2-0.3l0.2-0.1l0,0l0.3,0l0.1-0.3l0.1-0.2l0.2-0.1l0.1,0
				l0.1,0.1l0,0.1l0,0.2l-0.3,0.8l-0.8,3.1l-0.3,0.8l-0.4,1.5l-0.2,0.4l0,0.5l-0.2,0.6l-0.1,0.4l-0.1,0.3l0,0.2l-0.2,0L48,19.9
				l-0.5,0.7l-0.5,0.2l-0.2,0.2l0.1,0.4l-0.3,0.3l-0.6,0.2l-0.2,0.1l0,0.1l0.1,0.2l0.1,0.2l0.1,0.1l0.1,0l0.3-0.3l0.3-0.4l0.1-0.2
				l0.2-0.3l0-0.2l0.5,0.1l0.2,0l0-0.3l0.1-0.2l0.2-0.2l0.1-0.2L48,20.7l0.1,0.4L48,21.3l-0.1,0.2l-0.1,0.5l-0.2,0.6l-0.2,0.8
				l-0.2,0.6L47,24.4l0.2,0.1l0.2,0.1l0.9,0.3l1,0.5l0.3,0.1l0.5-0.5l0.2-0.2l0-0.1l0-0.3l0.6-0.5l0-0.3l0.1-0.2l0.4-0.4l0.3,0
				l0.1-0.4l0.2-0.6l0.1-0.2l0.1-0.3l0.3,0.1l0.3,0.1l0.2,0l-0.1-0.3L53,21.4l0-0.1l0.2-0.2l0.2-0.3l0.3-0.5l0.2-0.1l0.2,0.2l0.1,0
				l0.1,0l0.1,0l0.1-0.1l0.1-0.2l0.1-0.4l0.1-0.3l0-0.3l-0.2,0l-0.1,0.1l-0.7,0.4L53.5,20l-0.2,0.2l-0.2,0.2L52.2,21l-0.1,0.1l0,0.1
				L52,21.4l0,0.1l-0.1,0.1L51.3,22l-0.4,0.2l0,0l-0.1,0.3l-0.3,0.2L50,23.3l-0.2,0.2l-0.1,0l0-0.2l0.1-0.3l0.4-1.3l0.3-0.4l0-0.7
				l0.2-0.3l0-0.4l0.2-0.2l0.2-0.7l0.3-0.7l-0.1-0.6l0-0.1l0-0.1l0.2-0.1l0.3-0.1l0-0.1l-0.1-0.4l0-0.4l0.1-0.3l0.1-0.1l0.1,0
				l0.2-0.2l-0.1-0.6l0.3-0.3l0.2-0.1l0.1-0.4l-0.1-0.3l0-0.3l0.1-0.2l0.2-0.2L53,13.1l0.7-0.8l0-0.1l0-0.3l0.1-0.3l0.1-0.4l0-0.1
				l0-0.1l-0.3-0.2l-0.8-0.4l-0.3,0l-0.2,0.2l-0.1,0.2l0.1,0.2l0,0.4l-0.2,0l-0.2,0.1l-0.1,0l-0.1-0.1l-0.1-0.1l0.1-0.5l0.3-0.6
				l0.1,0l0.1,0l0.3,0l0.2-0.1l0.3,0l0.2-0.2l0.4,0.1l0.3-0.2l0.4,0.2l0.1,0l0.6-0.3l0.4-0.2l0.1,0l0.2,0l0.8-0.2l0.4-0.2l0.5-0.1
				l0.4-0.2l0.2,0l0.2-0.1l0.3,0l0.3-0.1c0,0,0.2,0,0.3,0c0,0,0.6-0.6,1-0.8C60.7,7.4,61,7.8,61.1,8c0,0.2,0.2,0.8,0.2,0.8
				s0.5-0.4,0.8-0.7c0.3-0.3,0.4-0.7,0.8-1c0.4-0.3,0.6-0.4,0.7-0.9c0.1-0.5,0.4-0.5,0.6-0.5c0.2,0,0.4,0.2,0.4,0.2s0-0.2,0.1-0.4
				c0.1-0.2,0.2-0.3,0.4-0.5c0.3-0.2,0.5-0.6,0.5-0.6S64.1,4.1,63.7,4.1z M50,17.3l-0.1,0.6l0,0.3l-0.3,0.5l-0.1,0.6l0,0.1l-0.1,0.1
				l-0.3,0.1l0-0.2l0.4-1.1l0.1-0.7l0.1-0.2l0.3-0.2l0.1,0L50,17.3z"/>
			<polygon class="st0" points="55.6,18 55.1,18.3 54.6,18.6 54.6,18.7 54.9,19 55.1,19.3 55.3,19.3 55.5,19.1 55.5,18.8 55.6,18.4 
				55.7,18.1 55.9,17.9 55.8,17.8 			"/>
		</g>
		<g>
			<path class="st0" d="M8.1,39.2l0.1,0c0.1-0.2,0.1-0.4,0.2-0.5s0.2-0.2,0.3-0.2c0.1,0,0.2,0,0.2,0c0,0,0,0.1-0.1,0.2
				c-0.1,0.1-0.1,0.2-0.1,0.3c0.1,0,0.1,0,0.2,0C8.9,39,9,39,9,39c-0.1,0.2-0.2,0.5-0.3,0.8c-0.1,0-0.1,0-0.2,0c0,0-0.1,0-0.1,0
				c0,0-0.1,0-0.2,0c-0.1,0.2-0.1,0.4-0.2,0.5C8,40.6,8,40.7,8,40.8c0,0.1,0,0.2,0,0.3c0,0.1,0.1,0.2,0.2,0.2c0.1,0,0.2-0.1,0.3-0.2
				c0.1-0.1,0.3-0.3,0.4-0.5l0,0.2c-0.4,0.7-0.8,1.1-1.1,1.2c-0.1,0-0.2,0-0.3,0c-0.1-0.1-0.1-0.1-0.1-0.2c0-0.1,0-0.2,0-0.3
				c0-0.1,0-0.3,0.1-0.5c0,0,0,0.1-0.1,0.1c0,0,0,0.1-0.1,0.1c0,0,0,0.1-0.1,0.1c0,0,0,0.1-0.1,0.1l0-0.2c0.2-0.2,0.4-0.6,0.6-1.1
				c0,0-0.1,0-0.1,0c0,0-0.1,0-0.1,0c-0.1,0-0.2,0.1-0.3,0.1c0,0,0,0-0.1,0c0,0,0,0,0,0c0,0,0,0,0,0c0-0.1,0-0.2,0.1-0.3
				c0-0.1,0.1-0.2,0.1-0.3c0.1-0.1,0.1-0.1,0.2-0.2C7.8,39.3,7.9,39.3,8.1,39.2z"/>
			<path class="st0" d="M11.3,40l0,0.2c-0.1,0.2-0.3,0.4-0.4,0.6c-0.1,0.1-0.2,0.3-0.3,0.3c-0.1,0.1-0.2,0.1-0.2,0.2
				c-0.2,0-0.3,0-0.3-0.2c0-0.1,0-0.3,0-0.6c0.1-0.2,0.2-0.5,0.3-0.8c-0.1,0.1-0.2,0.2-0.2,0.2c-0.1,0.1-0.1,0.2-0.2,0.3
				c0,0.1-0.1,0.2-0.1,0.2c-0.1,0.2-0.2,0.4-0.3,0.6c-0.1,0.2-0.2,0.3-0.2,0.4c0,0.1-0.1,0.1-0.1,0.1c-0.2,0-0.3-0.1-0.4-0.5
				c0-0.1,0-0.3,0-0.4c0-0.2,0.1-0.4,0.2-0.7c0.3-0.6,0.5-1.1,0.7-1.5c0.2-0.4,0.4-0.7,0.5-0.9c0.1-0.2,0.2-0.3,0.3-0.3
				c0.1,0,0.1,0,0.2,0c0.1,0,0.1,0,0.1,0.1c0,0,0,0.1-0.1,0.3c0,0.1-0.1,0.3-0.3,0.6c-0.1,0.3-0.2,0.5-0.3,0.7
				c-0.1,0.1-0.1,0.3-0.3,0.5c-0.1,0.2-0.2,0.4-0.3,0.6c-0.1,0.2-0.2,0.4-0.3,0.6l0.1,0.4c0.2-0.4,0.4-0.7,0.6-0.9
				c0.2-0.2,0.3-0.4,0.4-0.6c0.1-0.1,0.2-0.2,0.3-0.2c0.1,0,0.1,0,0.2,0.1c0.1,0.1,0.1,0.1,0.1,0.2c0,0,0,0,0,0.1
				c-0.1,0.2-0.2,0.4-0.3,0.5s-0.1,0.3-0.1,0.4c0,0.1,0,0.2,0,0.2c0,0.1,0.1,0.1,0.2,0.1C10.8,40.5,11,40.3,11.3,40z"/>
			<path class="st0" d="M11.8,39.9L11.8,39.9c0,0.2,0.1,0.3,0.2,0.3c0.1,0,0.2,0.1,0.3,0c0.1,0,0.2-0.1,0.3-0.2
				c0.1-0.1,0.2-0.2,0.3-0.3c0.1-0.1,0.2-0.2,0.3-0.4l0,0.2c-0.2,0.3-0.4,0.6-0.5,0.8c-0.2,0.2-0.4,0.3-0.6,0.4
				c-0.2,0.1-0.4,0-0.5-0.1c-0.1-0.1-0.2-0.3-0.3-0.5c0-0.2,0-0.4,0-0.6c0.1-0.2,0.2-0.4,0.4-0.7c0.1-0.2,0.3-0.3,0.4-0.4
				c0.1-0.1,0.3-0.2,0.4-0.2c0.1,0,0.2,0,0.3,0c0.1,0,0.1,0.1,0.1,0.2c0,0.1,0,0.3-0.1,0.4c-0.1,0.2-0.2,0.3-0.4,0.5
				C12.3,39.6,12.1,39.8,11.8,39.9z M11.8,39.7c0.2-0.1,0.3-0.3,0.4-0.4c0.1-0.1,0.2-0.3,0.2-0.4c0-0.1,0.1-0.2,0.1-0.2
				c0,0,0-0.1-0.1-0.1c0,0-0.1,0-0.2,0.1c-0.1,0.1-0.1,0.2-0.2,0.2c-0.1,0.1-0.1,0.2-0.2,0.3S11.8,39.6,11.8,39.7z"/>
			<path class="st0" d="M17.1,37.9c-0.3,0.5-0.4,0.8-0.4,1c0,0.1,0.1,0.1,0.1,0.1c0.1,0,0.1-0.1,0.2-0.2c0.1-0.1,0.2-0.2,0.4-0.4
				l0,0.2c-0.2,0.4-0.4,0.6-0.6,0.8c-0.1,0.2-0.3,0.3-0.4,0.3c-0.2,0-0.3,0-0.3-0.3c0-0.1,0-0.1,0-0.2c0-0.1,0-0.1,0-0.2
				c0-0.1,0.1-0.2,0.1-0.3c0-0.1,0.1-0.3,0.2-0.5c-0.1,0.1-0.2,0.2-0.4,0.5c-0.1,0.1-0.2,0.3-0.2,0.4c-0.1,0.1-0.1,0.2-0.2,0.4
				c-0.1,0.1-0.1,0.2-0.2,0.3c0,0.1-0.1,0.1-0.1,0.1c-0.1,0-0.1,0-0.2-0.1c-0.1-0.1-0.2-0.3-0.2-0.4c0-0.1,0-0.2,0-0.3
				c0-0.1,0-0.2,0.1-0.3c0.1-0.2,0.2-0.4,0.3-0.6c0.1-0.1,0.2-0.2,0.3-0.2c0.1,0,0.1,0,0.2,0c0,0,0.1,0,0.1,0.1c0,0,0,0,0,0.1
				c0,0,0,0,0,0.1c0,0,0,0.1-0.1,0.1c-0.3,0.4-0.4,0.7-0.3,0.8c0,0.1,0,0.1,0.1,0.1c0,0,0.1-0.1,0.1-0.2c0.1-0.1,0.1-0.2,0.2-0.4
				c0.1-0.2,0.2-0.3,0.3-0.5c0.1-0.2,0.3-0.4,0.5-0.5c0.1-0.1,0.2-0.2,0.3-0.2c0,0,0.1,0,0.1,0.1c0.1,0.1,0.1,0.2,0.1,0.3
				C17.2,37.7,17.1,37.7,17.1,37.9z"/>
			<path class="st0" d="M17.7,37.7c0.3-0.4,0.5-0.6,0.8-0.9c0.3-0.2,0.5-0.3,0.7-0.4c0,0,0.1,0,0.1,0c0,0,0.1,0.1,0.1,0.1
				c0,0,0.1,0.1,0.1,0.1c0,0,0,0.1,0,0.1c0,0-0.1,0.1-0.1,0.1c0,0,0.1,0.1,0.1,0.1c0,0,0.1,0.1,0.1,0.1c0,0,0,0.1,0,0.1
				c0,0,0,0.2-0.1,0.3c-0.1,0.2-0.1,0.3-0.2,0.3c0,0.1,0,0.2,0,0.2c0,0.1,0.1,0.2,0.3,0.2c0.1,0,0.4-0.2,0.6-0.6l0,0.2
				c-0.4,0.7-0.7,1.1-1,1.1c-0.1,0-0.1,0-0.2,0c0,0-0.1-0.1-0.1-0.2c0-0.2,0-0.4,0-0.7c-0.2,0.4-0.4,0.7-0.5,0.9
				c-0.1,0.2-0.2,0.3-0.3,0.3c0,0-0.1,0-0.2-0.1c-0.1-0.1-0.2-0.1-0.3-0.2c-0.1-0.1-0.1-0.2-0.2-0.4c0-0.1,0-0.2,0-0.2
				c0-0.1,0-0.1,0.1-0.2C17.5,37.9,17.6,37.8,17.7,37.7z M19.1,37c-0.5,0.4-0.8,0.7-1,0.9c-0.2,0.2-0.3,0.4-0.2,0.6
				c0,0.1,0,0.1,0.1,0.1c0,0,0.1,0,0.1,0c0,0,0.1,0,0.1-0.1c0.2-0.2,0.4-0.4,0.5-0.6C18.8,37.7,18.9,37.4,19.1,37z"/>
			<path class="st0" d="M21.6,37.6c0.2-0.3,0.4-0.6,0.6-0.8c0.2-0.2,0.3-0.4,0.4-0.6c0.1-0.1,0.2-0.3,0.3-0.3
				c0.1-0.1,0.1-0.1,0.2-0.2c0,0,0.1,0,0.2,0.1c0.1,0.1,0.1,0.2,0.1,0.2c0,0,0,0.1-0.1,0.3c-0.1,0.2-0.2,0.3-0.2,0.4
				c0,0.1-0.1,0.2,0,0.3c0,0.1,0,0.1,0.1,0.1c0,0,0.1,0,0.1,0c0.1,0,0.1-0.1,0.2-0.1c0.1-0.1,0.2-0.2,0.3-0.4l0,0.2
				c-0.1,0.2-0.3,0.4-0.4,0.6c-0.1,0.2-0.2,0.3-0.3,0.4c-0.1,0.1-0.2,0.1-0.3,0.2c-0.1,0-0.1,0-0.2,0c-0.1,0-0.1-0.1-0.1-0.2
				c0-0.1,0-0.1,0-0.2c0-0.1,0-0.2,0.1-0.3c0-0.1,0.1-0.2,0.1-0.4c0.1-0.2,0.1-0.3,0.2-0.4c-0.2,0.2-0.3,0.4-0.5,0.6
				c-0.1,0.2-0.2,0.4-0.3,0.5c-0.1,0.1-0.1,0.3-0.2,0.3c-0.1,0.2-0.2,0.2-0.3,0.3c-0.1,0-0.2,0-0.2-0.2c0-0.1,0-0.2,0.1-0.4
				c0-0.2,0.1-0.4,0.2-0.7c0,0,0,0,0-0.1c0,0,0-0.1-0.1,0c0,0-0.1,0.1-0.2,0.2c-0.1,0.1-0.2,0.3-0.4,0.7c-0.1,0.1-0.1,0.2-0.2,0.4
				c-0.1,0.1-0.1,0.2-0.1,0.3c0,0-0.1,0.1-0.1,0.1c-0.1,0-0.2,0-0.3-0.1c-0.1-0.1-0.2-0.2-0.2-0.4c0-0.1,0-0.2,0-0.3
				c0-0.1,0.1-0.2,0.1-0.4c0.1-0.2,0.2-0.4,0.3-0.5c0.1-0.1,0.2-0.2,0.3-0.2c0.1,0,0.1,0,0.2,0c0,0,0.1,0,0.1,0.1c0,0,0,0.1-0.1,0.2
				c-0.1,0.1-0.1,0.2-0.2,0.4c-0.1,0.1-0.1,0.2-0.1,0.3c0,0.1-0.1,0.2,0,0.2c0,0.1,0,0.1,0.1,0.1c0,0,0.1-0.1,0.2-0.3
				c0.1-0.2,0.2-0.4,0.4-0.6c0.1-0.2,0.3-0.4,0.4-0.5c0.1-0.1,0.2-0.2,0.3-0.3c0.1,0,0.1,0,0.2,0c0.1,0,0.1,0.1,0.1,0.1
				c0,0,0,0.1,0,0.3c0,0.1-0.1,0.3-0.2,0.5C21.9,37.1,21.7,37.3,21.6,37.6z"/>
			<path class="st0" d="M24.2,36.6L24.2,36.6c0,0.2,0.1,0.3,0.2,0.3c0.1,0,0.2,0.1,0.3,0c0.1,0,0.2-0.1,0.3-0.2
				c0.1-0.1,0.2-0.2,0.3-0.3c0.1-0.1,0.2-0.2,0.3-0.4l0,0.2c-0.2,0.3-0.4,0.6-0.5,0.8c-0.2,0.2-0.4,0.3-0.6,0.4
				c-0.2,0.1-0.4,0-0.5-0.1c-0.1-0.1-0.2-0.3-0.3-0.5c0-0.2,0-0.4,0-0.6c0.1-0.2,0.2-0.4,0.4-0.7c0.1-0.2,0.3-0.3,0.4-0.4
				c0.1-0.1,0.3-0.2,0.4-0.2c0.1,0,0.2,0,0.3,0c0.1,0,0.1,0.1,0.1,0.2c0,0.1,0,0.3-0.1,0.4c-0.1,0.2-0.2,0.3-0.4,0.5
				C24.7,36.2,24.5,36.4,24.2,36.6z M24.2,36.4c0.2-0.1,0.3-0.3,0.4-0.4c0.1-0.1,0.2-0.3,0.2-0.4c0-0.1,0.1-0.2,0.1-0.2
				c0,0,0-0.1-0.1-0.1c0,0-0.1,0-0.2,0.1c-0.1,0.1-0.1,0.2-0.2,0.2c-0.1,0.1-0.1,0.2-0.2,0.3C24.2,36.2,24.2,36.3,24.2,36.4z"/>
			<path class="st0" d="M28.9,35.4L28.4,36c-0.2,0.3-0.4,0.5-0.5,0.5c-0.1,0-0.2,0-0.3-0.2c-0.1-0.2-0.2-0.3-0.2-0.4
				c0-0.1,0-0.2,0-0.3c0-0.1,0.1-0.2,0.1-0.4c0.1-0.2,0.2-0.4,0.3-0.5c0.1-0.1,0.2-0.3,0.3-0.4c0.1-0.1,0.1-0.1,0.2-0.1
				c0.1,0,0.1,0,0.2,0c0.1,0,0.1,0.1,0.1,0.2c0,0,0,0.1,0,0.2c0,0.1-0.1,0.2-0.2,0.4c-0.1,0.2-0.2,0.4-0.4,0.6l0,0.2
				c0,0,0,0.1,0,0.1c0,0.1,0,0.1,0.1,0.1c0.1,0,0.2-0.1,0.4-0.3c0.2-0.2,0.4-0.5,0.6-0.8c0.1-0.1,0.1-0.2,0.2-0.3
				c0-0.1,0.1-0.2,0.1-0.2c0-0.1,0.1-0.1,0.1-0.2c0,0,0.1-0.1,0.1-0.1c0.1,0,0.1,0,0.1,0c0,0,0.1,0.1,0.1,0.2c0,0.1,0,0.1,0,0.2
				c0,0.1-0.1,0.3-0.2,0.5c-0.1,0.2-0.2,0.5-0.3,0.7c-0.1,0.2-0.2,0.5-0.3,0.8c0,0,0.1-0.1,0.2-0.2c0.1-0.1,0.2-0.3,0.3-0.5
				c0.1-0.2,0.2-0.3,0.3-0.4c0.1-0.1,0.2-0.2,0.3-0.4l0,0.2c-0.2,0.4-0.4,0.7-0.6,1c-0.2,0.3-0.3,0.6-0.4,0.8
				c-0.1,0.2-0.1,0.3-0.2,0.3c0,0.1-0.1,0.2-0.1,0.2c0,0.1-0.1,0.1-0.1,0.2c0,0,0,0.1-0.1,0.1c0,0-0.1,0-0.1-0.1
				c-0.1-0.1-0.1-0.1-0.1-0.2c0-0.1,0-0.1,0-0.2C28.3,36.9,28.5,36.3,28.9,35.4z"/>
			<path class="st0" d="M31.9,34.4l0,0.2c-0.1,0.2-0.2,0.3-0.3,0.3c-0.1,0.1-0.2,0.1-0.4,0.1c-0.2,0.4-0.4,0.6-0.6,0.7
				c-0.1,0-0.2,0-0.3,0c-0.1,0-0.2-0.1-0.3-0.2c-0.1-0.1-0.1-0.2-0.2-0.4c0-0.1,0-0.3,0-0.5c0.1-0.2,0.1-0.4,0.3-0.5
				c0.1-0.2,0.2-0.3,0.4-0.4c0.1-0.1,0.3-0.2,0.4-0.2c0.1,0,0.2,0,0.2,0c0.1,0,0.1,0,0.1,0.1c0,0,0,0.1,0,0.2c0.1,0,0.1,0,0.2,0
				c0,0,0.1,0.1,0.1,0.2c0,0.1,0,0.2,0,0.4c0,0.2,0,0.3-0.1,0.5l0.1,0l0,0c0,0,0.1,0,0.1-0.1c0,0,0.1-0.1,0.1-0.1
				C31.7,34.6,31.8,34.5,31.9,34.4z M31,33.8c-0.2,0.1-0.3,0.3-0.4,0.4c-0.1,0.1-0.2,0.2-0.3,0.3c-0.1,0.1-0.1,0.2-0.1,0.3
				c0,0.2,0,0.4,0,0.4c0,0.1,0.1,0.2,0.3,0.1c0.1,0,0.2-0.1,0.4-0.3c-0.1-0.1-0.1-0.2-0.1-0.3c0-0.1,0-0.3,0-0.4
				C30.9,34.2,31,34,31,33.8z"/>
			<path class="st0" d="M33.3,33.8c-0.2,0.5-0.4,0.8-0.5,1c-0.1,0.2-0.2,0.3-0.3,0.3c-0.1,0-0.2,0-0.2,0c-0.1,0-0.2-0.1-0.2-0.2
				c-0.1-0.1-0.1-0.2-0.1-0.3c0-0.1,0-0.2,0-0.2c0-0.1,0-0.1,0-0.2c0-0.1,0.1-0.2,0.1-0.3c0.1-0.1,0.1-0.2,0.2-0.4
				c0-0.1,0.1-0.2,0.1-0.2c0-0.1,0.1-0.1,0.1-0.1c0,0,0.1-0.1,0.2-0.1c0.1,0,0.1,0,0.2,0c0.1,0,0.1,0,0.1,0c0,0,0,0.1-0.1,0.2
				c0,0.1-0.1,0.3-0.2,0.4c-0.1,0.2-0.2,0.3-0.4,0.5c0,0.1,0,0.2,0,0.3c0,0.1,0.1,0.1,0.1,0.1c0,0,0.1,0,0.1-0.1
				c0.1-0.1,0.1-0.2,0.2-0.3c0.1-0.2,0.2-0.3,0.3-0.4c0.1-0.1,0.1-0.2,0.2-0.4c0.1-0.2,0.1-0.3,0.2-0.4c0.1-0.2,0.2-0.3,0.3-0.4
				c0-0.1,0.1-0.1,0.1-0.1c0.1,0,0.1,0,0.1,0c0,0,0,0.1,0.1,0.2c0,0,0,0.1,0,0.1c0,0,0,0.1,0,0.1c0,0-0.1,0.1-0.1,0.3
				c-0.1,0.1-0.1,0.3-0.2,0.5c0,0.1-0.1,0.2-0.1,0.3c0,0.1,0,0.2,0,0.2c0,0.1,0.1,0.1,0.2,0.1c0.1,0,0.1-0.1,0.2-0.2
				c0.1-0.1,0.2-0.2,0.4-0.4l0,0.2c-0.2,0.3-0.3,0.5-0.4,0.6c-0.1,0.1-0.2,0.2-0.3,0.3c-0.1,0.1-0.2,0.1-0.2,0.1
				c-0.2,0-0.3,0-0.3-0.2c0-0.1,0-0.2,0-0.3C33.2,34.3,33.2,34.1,33.3,33.8z"/>
			<path class="st0" d="M38.1,32.7l0,0.2c-0.2,0.3-0.3,0.5-0.4,0.6c-0.1,0.2-0.2,0.3-0.3,0.4c-0.1,0.1-0.2,0.2-0.3,0.2
				c-0.1,0-0.2,0-0.4,0c-0.1-0.1-0.2-0.2-0.3-0.3c-0.1-0.1-0.1-0.3-0.2-0.4c0-0.1,0-0.3,0-0.4c0-0.1,0.1-0.3,0.3-0.5
				c0.2-0.3,0.3-0.5,0.5-0.6c0.2-0.2,0.3-0.3,0.4-0.3c0.1,0,0.1,0,0.2,0c0.1,0,0.1,0.1,0.1,0.2c0,0.1,0,0.2,0,0.3
				c0,0.1-0.1,0.3-0.2,0.4c-0.1,0.1-0.1,0.2-0.2,0.2c-0.1,0-0.1,0-0.1-0.1c0,0,0,0,0,0c0,0,0,0,0,0c0,0,0,0,0,0c0,0,0,0-0.1,0
				c-0.2,0.2-0.3,0.3-0.4,0.4c-0.1,0.1-0.1,0.2-0.1,0.2c0,0.1,0,0.1,0,0.2c0,0.1,0.1,0.2,0.2,0.3c0.1,0.1,0.2,0.1,0.3,0
				c0.1,0,0.3-0.1,0.4-0.3C37.7,33.2,37.9,33,38.1,32.7z"/>
			<path class="st0" d="M38.3,32.1c0.3-0.4,0.5-0.6,0.8-0.9c0.3-0.2,0.5-0.3,0.7-0.4c0,0,0.1,0,0.1,0c0,0,0.1,0.1,0.1,0.1
				c0,0,0.1,0.1,0.1,0.1c0,0,0,0.1,0,0.1c0,0-0.1,0.1-0.1,0.1c0,0,0.1,0.1,0.1,0.1c0,0,0.1,0.1,0.1,0.1c0,0,0,0.1,0,0.1
				c0,0,0,0.2-0.1,0.3c-0.1,0.2-0.1,0.3-0.2,0.3c0,0.1,0,0.2,0,0.2c0,0.1,0.1,0.2,0.3,0.2c0.1,0,0.4-0.2,0.6-0.6l0,0.2
				c-0.4,0.7-0.7,1.1-1,1.1c-0.1,0-0.1,0-0.2,0c0,0-0.1-0.1-0.1-0.2c0-0.2,0-0.4,0-0.7c-0.2,0.4-0.4,0.7-0.5,0.9
				c-0.1,0.2-0.2,0.3-0.3,0.3c0,0-0.1,0-0.2-0.1c-0.1-0.1-0.2-0.1-0.3-0.2c-0.1-0.1-0.1-0.2-0.2-0.4c0-0.1,0-0.2,0-0.2
				c0-0.1,0-0.1,0.1-0.2C38.2,32.4,38.2,32.2,38.3,32.1z M39.8,31.4c-0.5,0.4-0.8,0.7-1,0.9c-0.2,0.2-0.3,0.4-0.2,0.6
				c0,0.1,0,0.1,0.1,0.1c0,0,0.1,0,0.1,0c0,0,0.1,0,0.1-0.1c0.2-0.2,0.4-0.4,0.5-0.6C39.4,32.1,39.6,31.8,39.8,31.4z"/>
			<path class="st0" d="M42.7,30.9c-0.3,0.5-0.4,0.8-0.4,1c0,0.1,0.1,0.1,0.1,0.1c0.1,0,0.1-0.1,0.2-0.2c0.1-0.1,0.2-0.2,0.4-0.4
				l0,0.2c-0.2,0.4-0.4,0.6-0.6,0.8c-0.1,0.2-0.3,0.3-0.4,0.3c-0.2,0-0.3,0-0.3-0.3c0-0.1,0-0.1,0-0.2c0-0.1,0-0.1,0-0.2
				c0-0.1,0.1-0.2,0.1-0.3c0-0.1,0.1-0.3,0.2-0.5c-0.1,0.1-0.2,0.2-0.4,0.5c-0.1,0.1-0.2,0.3-0.2,0.4c-0.1,0.1-0.1,0.2-0.2,0.4
				c-0.1,0.1-0.1,0.2-0.2,0.3c0,0.1-0.1,0.1-0.1,0.1c-0.1,0-0.1,0-0.2-0.1c-0.1-0.1-0.2-0.3-0.2-0.4c0-0.1,0-0.2,0-0.3
				c0-0.1,0-0.2,0.1-0.3c0.1-0.2,0.2-0.4,0.3-0.6c0.1-0.1,0.2-0.2,0.3-0.2c0.1,0,0.1,0,0.2,0c0,0,0.1,0,0.1,0.1c0,0,0,0,0,0.1
				c0,0,0,0,0,0.1c0,0,0,0.1-0.1,0.1c-0.3,0.4-0.4,0.7-0.3,0.8c0,0.1,0,0.1,0.1,0.1c0,0,0.1-0.1,0.1-0.2c0.1-0.1,0.1-0.2,0.2-0.4
				c0.1-0.2,0.2-0.3,0.3-0.5c0.1-0.2,0.3-0.4,0.5-0.5c0.1-0.1,0.2-0.2,0.3-0.2c0,0,0.1,0,0.1,0.1c0.1,0.1,0.1,0.2,0.1,0.3
				C42.8,30.7,42.8,30.8,42.7,30.9z"/>
			<path class="st0" d="M45.6,29.1l0.1,0c0.1-0.2,0.1-0.4,0.2-0.5c0.1-0.1,0.2-0.2,0.3-0.2c0.1,0,0.2,0,0.2,0c0,0,0,0.1-0.1,0.2
				c-0.1,0.1-0.1,0.2-0.1,0.3c0.1,0,0.1,0,0.2,0c0.1,0,0.1,0,0.1,0c-0.1,0.2-0.2,0.5-0.3,0.8c-0.1,0-0.1,0-0.2,0c0,0-0.1,0-0.1,0
				c0,0-0.1,0-0.2,0c-0.1,0.2-0.1,0.4-0.2,0.5c0,0.2-0.1,0.3-0.1,0.4c0,0.1,0,0.2,0,0.3c0,0.1,0.1,0.2,0.2,0.2
				c0.1,0,0.2-0.1,0.3-0.2c0.1-0.1,0.3-0.3,0.4-0.5l0,0.2c-0.4,0.7-0.8,1.1-1.1,1.2c-0.1,0-0.2,0-0.3,0c-0.1-0.1-0.1-0.1-0.1-0.2
				c0-0.1,0-0.2,0-0.3c0-0.1,0-0.3,0.1-0.5c0,0,0,0.1-0.1,0.1c0,0,0,0.1-0.1,0.1c0,0,0,0.1-0.1,0.1c0,0,0,0.1-0.1,0.1l0-0.2
				c0.2-0.2,0.4-0.6,0.6-1.1c0,0-0.1,0-0.1,0c0,0-0.1,0-0.1,0c-0.1,0-0.2,0.1-0.3,0.1c0,0,0,0-0.1,0c0,0,0,0,0,0c0,0,0,0,0,0
				c0-0.1,0-0.2,0.1-0.3c0-0.1,0.1-0.2,0.1-0.3c0.1-0.1,0.1-0.1,0.2-0.2C45.3,29.2,45.4,29.1,45.6,29.1z"/>
			<path class="st0" d="M46.4,30.7l0-0.2c0.1-0.2,0.1-0.3,0.2-0.4c-0.1,0-0.1,0-0.2,0c0,0-0.1-0.1-0.1-0.1c0-0.1,0-0.2,0-0.3
				c0-0.1,0.1-0.2,0.2-0.4c0.1-0.1,0.1-0.2,0.2-0.3c0,0,0.1,0,0.1,0c0,0,0.1,0,0.1,0c0,0,0,0.1-0.1,0.2c0.4-0.2,0.7-0.3,0.8-0.3
				c0,0,0.1,0,0.1,0c0,0,0.1,0,0.1,0.1c0,0.1,0.1,0.1,0.1,0.2c0,0,0,0.1,0,0.2c0,0.1-0.1,0.1-0.2,0.3c-0.1,0.1-0.2,0.3-0.2,0.4
				c0,0.2-0.1,0.3,0,0.3c0,0.1,0.1,0.1,0.2,0.1c0.1,0,0.3-0.2,0.6-0.6l0,0.2c-0.1,0.2-0.3,0.4-0.3,0.5c-0.1,0.1-0.2,0.2-0.3,0.3
				c-0.1,0.1-0.2,0.1-0.2,0.2c-0.1,0-0.2,0-0.2-0.1c-0.1-0.1-0.1-0.2-0.2-0.3c0-0.1,0-0.2,0-0.3c0-0.1,0.1-0.3,0.1-0.4
				c0.1-0.2,0.1-0.3,0.2-0.5c-0.1,0-0.1,0.1-0.2,0.1c-0.1,0-0.1,0.1-0.2,0.1c-0.1,0-0.1,0.1-0.2,0.1C46.8,30.2,46.6,30.5,46.4,30.7z
				"/>
			<path class="st0" d="M49.8,29.4c-0.2,0.5-0.4,0.8-0.5,1c-0.1,0.2-0.2,0.3-0.3,0.3c-0.1,0-0.2,0-0.2,0c-0.1,0-0.2-0.1-0.2-0.2
				c-0.1-0.1-0.1-0.2-0.1-0.3c0-0.1,0-0.2,0-0.2c0-0.1,0-0.1,0-0.2c0-0.1,0.1-0.2,0.1-0.3c0.1-0.1,0.1-0.2,0.2-0.4
				c0-0.1,0.1-0.2,0.1-0.2c0-0.1,0.1-0.1,0.1-0.1c0,0,0.1-0.1,0.2-0.1c0.1,0,0.1,0,0.2,0c0.1,0,0.1,0,0.1,0c0,0,0,0.1,0,0.2
				c0,0.1-0.1,0.3-0.2,0.4c-0.1,0.2-0.2,0.3-0.4,0.5c0,0.1,0,0.2,0,0.3c0,0.1,0.1,0.1,0.1,0.1c0,0,0.1,0,0.1-0.1
				c0.1-0.1,0.1-0.2,0.2-0.3c0.1-0.2,0.2-0.3,0.3-0.4c0.1-0.1,0.1-0.2,0.2-0.4c0.1-0.2,0.1-0.3,0.2-0.4c0.1-0.2,0.2-0.3,0.3-0.4
				c0-0.1,0.1-0.1,0.1-0.1c0.1,0,0.1,0,0.1,0c0,0,0,0.1,0.1,0.2c0,0,0,0.1,0,0.1c0,0,0,0.1,0,0.1c0,0-0.1,0.1-0.1,0.3
				c-0.1,0.1-0.1,0.3-0.2,0.5c0,0.1-0.1,0.2-0.1,0.3c0,0.1,0,0.2,0,0.2c0,0.1,0.1,0.1,0.2,0.1c0.1,0,0.1-0.1,0.2-0.2
				c0.1-0.1,0.2-0.2,0.4-0.4l0,0.2c-0.2,0.3-0.3,0.5-0.4,0.6c-0.1,0.1-0.2,0.2-0.3,0.3c-0.1,0.1-0.2,0.1-0.2,0.1
				c-0.2,0-0.3,0-0.3-0.2c0-0.1,0-0.2,0-0.3C49.7,29.8,49.7,29.6,49.8,29.4z"/>
			<path class="st0" d="M50.8,29.4L50.8,29.4c0.4-0.8,0.7-1.2,0.9-1.5c0-0.3,0.1-0.4,0.3-0.5c0,0,0.1,0,0.2,0l0,0.1c0,0,0,0.1,0,0.1
				c0,0,0,0.1,0.1,0.2c0.1,0.1,0.1,0.2,0.1,0.2c0,0.1,0.1,0.1,0.1,0.2c0,0.1,0,0.3,0,0.4c0,0.1-0.1,0.3-0.2,0.4
				c-0.1,0.1-0.2,0.3-0.4,0.5c0.1,0,0.1,0,0.2,0c0.1,0,0.2-0.1,0.3-0.1c0.1-0.1,0.2-0.2,0.3-0.2c0.1-0.1,0.2-0.2,0.3-0.4l0,0.2
				c-0.2,0.3-0.4,0.6-0.6,0.8C52.1,29.9,52,30,51.8,30c-0.2,0.1-0.4,0-0.6-0.1c-0.1-0.1-0.2-0.1-0.2-0.2
				C50.9,29.6,50.9,29.5,50.8,29.4z M51.9,28.6l-0.2-0.4c-0.1,0.2-0.3,0.5-0.7,1c0.1,0,0.2,0,0.3,0c0.1,0,0.1,0.1,0.3,0.2
				c0.1-0.1,0.2-0.2,0.3-0.3C52,29,52,28.9,51.9,28.6C51.9,28.7,51.9,28.7,51.9,28.6C51.9,28.6,51.9,28.6,51.9,28.6z"/>
			<path class="st0" d="M53.6,26.9l0.1,0c0.1-0.2,0.1-0.4,0.2-0.5c0.1-0.1,0.2-0.2,0.3-0.2c0.1,0,0.2,0,0.2,0c0,0,0,0.1-0.1,0.2
				c-0.1,0.1-0.1,0.2-0.1,0.3c0.1,0,0.1,0,0.2,0c0.1,0,0.1,0,0.1,0c-0.1,0.2-0.2,0.5-0.3,0.8c-0.1,0-0.1,0-0.2,0c0,0-0.1,0-0.1,0
				c0,0-0.1,0-0.2,0c-0.1,0.2-0.1,0.4-0.2,0.5c0,0.2-0.1,0.3-0.1,0.4c0,0.1,0,0.2,0,0.3c0,0.1,0.1,0.2,0.2,0.2
				c0.1,0,0.2-0.1,0.3-0.2c0.1-0.1,0.3-0.3,0.4-0.5l0,0.2c-0.4,0.7-0.8,1.1-1.1,1.2c-0.1,0-0.2,0-0.3,0c-0.1-0.1-0.1-0.1-0.1-0.2
				c0-0.1,0-0.2,0-0.3c0-0.1,0-0.3,0.1-0.5c0,0,0,0.1-0.1,0.1c0,0,0,0.1-0.1,0.1c0,0,0,0.1-0.1,0.1c0,0,0,0.1-0.1,0.1l0-0.2
				c0.2-0.2,0.4-0.6,0.6-1.1c0,0-0.1,0-0.1,0c0,0-0.1,0-0.1,0c-0.1,0-0.2,0.1-0.3,0.1c0,0,0,0-0.1,0c0,0,0,0,0,0s0,0,0,0
				c0-0.1,0-0.2,0.1-0.3c0-0.1,0.1-0.2,0.1-0.3c0.1-0.1,0.1-0.1,0.2-0.2C53.3,27,53.5,26.9,53.6,26.9z"/>
			<path class="st0" d="M55.3,29.1c0,0-0.1,0-0.1,0c0,0-0.1-0.1-0.1-0.1c0,0,0-0.1,0-0.2c0-0.1,0.1-0.2,0.1-0.3
				c0.1-0.1,0.1-0.1,0.2-0.2c0.1,0,0.1,0,0.2,0.1c0,0.1,0,0.1,0,0.2c0,0.1-0.1,0.2-0.1,0.3C55.4,29,55.3,29.1,55.3,29.1z"/>
			<path class="st0" d="M57.4,28.5c0,0-0.1,0-0.1,0c0,0-0.1-0.1-0.1-0.1c0,0,0-0.1,0-0.2c0-0.1,0.1-0.2,0.1-0.3
				c0.1-0.1,0.1-0.1,0.2-0.2c0.1,0,0.1,0,0.2,0.1c0,0.1,0,0.1,0,0.2c0,0.1-0.1,0.2-0.1,0.3C57.6,28.4,57.5,28.5,57.4,28.5z"/>
			<path class="st0" d="M59.6,27.9c0,0-0.1,0-0.1,0c0,0-0.1-0.1-0.1-0.1c0,0,0-0.1,0-0.2c0-0.1,0.1-0.2,0.1-0.3
				c0.1-0.1,0.1-0.1,0.2-0.2c0.1,0,0.1,0,0.2,0.1c0,0.1,0,0.1,0,0.2c0,0.1-0.1,0.2-0.1,0.3C59.7,27.9,59.7,27.9,59.6,27.9z"/>
		</g>
	</g>
</g>
</svg>
